<svg width="330.66875px" height="122px" xmlns="http://www.w3.org/2000/svg" viewBox="84.665625 14 330.66875 122" style="background: rgba(0, 0, 0, 0);" preserveAspectRatio="xMidYMid"><defs><filter id="editing-vr"><feFlood flood-color="#f00" flood-opacity="0.7" result="c1"></feFlood><feFlood flood-color="#00f" flood-opacity="0.7" result="c3"></feFlood><feComposite operator="in" in="c1" in2="SourceAlpha" result="text-c1"></feComposite><feComposite operator="in" in="c3" in2="SourceAlpha" result="text-c3"></feComposite><feOffset in="text-c1" dx="5" dy="-1" result="text1"></feOffset><feOffset in="text-c3" dx="-5" dy="1" result="text3"></feOffset><feBlend in="SourceGraphic" in2="text1" mode="multiply" result="text4"></feBlend><feBlend in="text4" in2="text3" mode="multiply"></feBlend></filter></defs><g filter="url(#editing-vr)"><g transform="translate(137.67146277427673, 103.15999984741211)"><path d="M5.63-26.75L5.63-26.75L5.63-26.75Q7.81-29.82 11.10-31.87L11.10-31.87L11.10-31.87Q14.40-33.92 18.43-33.92L18.43-33.92L18.43-33.92Q22.46-33.92 24.38-32.64L24.38-32.64L36.93-33.92L32.58-9.34L32.58-9.34Q30.34 3.20 25.60 8.13L25.60 8.13L25.60 8.13Q21.06 12.80 12.22 12.80L12.22 12.80L12.22 12.80Q5.50 12.80 1.66 10.69L1.66 10.69L1.66 10.69Q-2.18 8.58-2.18 5.06L-2.18 5.06L-2.18 5.06Q-2.18 2.43-0.19 0.93L-0.19 0.93L-0.19 0.93Q1.79-0.58 4.86-0.58L4.86-0.58L4.86-0.58Q7.55-0.58 9.60 0.64L9.60 0.64L9.60 0.64Q10.82 1.28 11.39 2.18L11.39 2.18L11.39 2.18Q9.92 3.46 9.92 5.57L9.92 5.57L9.92 5.57Q9.92 8.32 12.48 8.32L12.48 8.32L12.48 8.32Q16.77 8.32 19.20-1.79L19.20-1.79L19.20-1.79Q19.90-4.54 20.48-7.30L20.48-7.30L20.48-7.30Q17.60-3.78 11.07-3.78L11.07-3.78L11.07-3.78Q6.53-3.78 3.90-5.95L3.90-5.95L3.90-5.95Q1.28-8.13 1.28-13.25L1.28-13.25L1.28-13.25Q1.28-16.45 2.37-20.06L2.37-20.06L2.37-20.06Q3.46-23.68 5.63-26.75ZM13.95-13.06L13.95-13.06L13.95-13.06Q13.95-8.70 16.19-8.70L16.19-8.70L16.19-8.70Q17.73-8.70 19.20-10.37L19.20-10.37L19.20-10.37Q20.35-11.71 20.80-13.70L20.80-13.70L24.06-30.14L24.06-30.14Q23.74-30.21 23.42-30.34L23.42-30.34L23.42-30.34Q22.78-30.59 21.95-30.59L21.95-30.59L21.95-30.59Q18.05-30.59 15.74-24.19L15.74-24.19L15.74-24.19Q13.95-19.20 13.95-13.06ZM59.97-2.69L59.97-2.69L59.97-2.69Q56.90 1.28 49.28 1.28L49.28 1.28L49.28 1.28Q45.31 1.28 42.43-1.12L42.43-1.12L42.43-1.12Q39.55-3.52 39.55-6.98L39.55-6.98L39.55-6.98Q39.55-8.90 39.74-9.86L39.74-9.86L44.03-32.64L57.02-33.92L52.35-9.22L52.35-9.22Q52.10-7.81 52.10-6.98L52.10-6.98L52.10-6.98Q52.10-3.26 54.34-3.26L54.34-3.26L54.34-3.26Q56.83-3.26 58.62-6.66L58.62-6.66L58.62-6.66Q59.20-7.74 59.46-9.15L59.46-9.15L64-32.64L76.61-33.92L71.87-8.96L71.87-8.96Q71.68-8 71.68-6.98L71.68-6.98L71.68-6.98Q71.68-5.95 72.26-4.83L72.26-4.83L72.26-4.83Q72.83-3.71 74.69-3.46L74.69-3.46L74.69-3.46Q74.30-1.92 72.96-0.90L72.96-0.90L72.96-0.90Q70.14 1.28 67.10 1.28L67.10 1.28L67.10 1.28Q64.06 1.28 62.27 0.19L62.27 0.19L62.27 0.19Q60.48-0.90 59.97-2.69ZM103.30-31.55L103.30-31.55L103.30-31.55Q105.41-33.92 109.06-33.92L109.06-33.92L109.06-33.92Q111.30-33.92 113.02-32.70L113.02-32.70L113.02-32.70Q114.75-31.49 114.75-29.22L114.75-29.22L114.75-29.22Q114.75-26.94 114.05-24.51L114.05-24.51L114.05-24.51Q113.34-22.08 112.26-19.58L112.26-19.58L112.26-19.58Q110.08-14.72 107.07-10.69L107.07-10.69L107.07-10.69Q102.85-4.86 98.78-1.79L98.78-1.79L98.78-1.79Q94.72 1.28 90.30 1.28L90.30 1.28L90.30 1.28Q86.72 1.28 84.54 0.45L84.54 0.45L84.54 0.45Q84.16-12.99 83.68-17.79L83.68-17.79L83.68-17.79Q83.20-22.59 82.82-25.22L82.82-25.22L82.82-25.22Q82.18-30.34 80.26-31.55L80.26-31.55L80.26-31.55Q81.73-32.83 83.17-33.38L83.17-33.38L83.17-33.38Q84.61-33.92 87.58-33.92L87.58-33.92L87.58-33.92Q90.56-33.92 92.67-31.58L92.67-31.58L92.67-31.58Q94.78-29.25 95.20-25.12L95.20-25.12L95.20-25.12Q95.62-20.99 95.62-16L95.62-16L95.62-16Q95.62-11.01 95.23-4.99L95.23-4.99L95.23-4.99Q97.22-6.40 99.33-10.69L99.33-10.69L99.33-10.69Q102.21-16.64 103.23-23.81L103.23-23.81L103.23-23.81Q103.55-25.98 103.55-28.29L103.55-28.29L103.55-28.29Q103.55-30.59 103.30-31.55ZM142.40-10.82L142.40-10.82L142.40-10.82Q144-9.73 144-7.33L144-7.33L144-7.33Q144-4.93 142.78-3.39L142.78-3.39L142.78-3.39Q141.57-1.86 139.58-0.83L139.58-0.83L139.58-0.83Q135.49 1.28 131.07 1.28L131.07 1.28L131.07 1.28Q126.66 1.28 124.06 0.32L124.06 0.32L124.06 0.32Q121.47-0.64 119.74-2.43L119.74-2.43L119.74-2.43Q116.35-5.82 116.35-12.03L116.35-12.03L116.35-12.03Q116.35-21.70 121.60-27.58L121.60-27.58L121.60-27.58Q127.23-33.92 137.02-33.92L137.02-33.92L137.02-33.92Q143.10-33.92 146.11-31.36L146.11-31.36L146.11-31.36Q148.35-29.44 148.35-26.30L148.35-26.30L148.35-26.30Q148.35-15.04 128.90-15.04L128.90-15.04L128.90-15.04Q128.64-13.38 128.64-11.97L128.64-11.97L128.64-11.97Q128.64-9.02 129.95-7.90L129.95-7.90L129.95-7.90Q131.26-6.78 133.70-6.78L133.70-6.78L133.70-6.78Q136.13-6.78 138.72-7.90L138.72-7.90L138.72-7.90Q141.31-9.02 142.40-10.82ZM129.34-17.79L129.34-17.79L129.34-17.79Q133.89-17.79 136.51-20.61L136.51-20.61L136.51-20.61Q139.14-23.30 139.14-27.58L139.14-27.58L139.14-27.58Q139.14-29.06 138.59-29.86L138.59-29.86L138.59-29.86Q138.05-30.66 136.96-30.66L136.96-30.66L136.96-30.66Q135.87-30.66 134.94-30.24L134.94-30.24L134.94-30.24Q134.02-29.82 133.06-28.42L133.06-28.42L133.06-28.42Q130.69-25.22 129.34-17.79ZM177.60 1.28L177.60 1.28L177.60 1.28Q169.86 1.28 169.86-4.74L169.86-4.74L169.86-4.74Q169.92-6.40 170.43-9.22L170.43-9.22L171.58-15.10L171.58-15.10Q173.31-23.42 173.31-25.28L173.31-25.28L173.31-25.28Q173.31-28.99 171.14-28.99L171.14-28.99L171.14-28.99Q167.49-28.99 165.57-19.46L165.57-19.46L161.79 0L148.93 1.28L155.58-32.70L166.08-33.92L165.06-27.65L165.06-27.65Q168.06-33.92 177.28-33.92L177.28-33.92L177.28-33.92Q181.76-33.92 183.65-32.03L183.65-32.03L183.65-32.03Q185.54-30.14 185.54-25.92L185.54-25.92L185.54-25.92Q185.54-21.95 183.49-12.67L183.49-12.67L183.49-12.67Q182.53-8.51 182.53-6.94L182.53-6.94L182.53-6.94Q182.53-5.38 183.39-4.48L183.39-4.48L183.39-4.48Q184.26-3.58 185.54-3.46L185.54-3.46L185.54-3.46Q184.90-1.28 182.69 0L182.69 0L182.69 0Q180.48 1.28 177.60 1.28ZM189.70-8.90L189.70-8.90L189.70-8.90Q189.70-16.26 199.30-20.93L199.30-20.93L199.30-20.93Q195.07-24.38 195.07-28.86L195.07-28.86L195.07-28.86Q195.07-35.01 200.19-39.30L200.19-39.30L200.19-39.30Q205.25-43.52 212.80-43.52L212.80-43.52L212.80-43.52Q217.92-43.52 221.06-41.09L221.06-41.09L221.06-41.09Q224.19-38.66 224.19-35.01L224.19-35.01L224.19-35.01Q224.19-29.44 218.56-25.60L218.56-25.60L218.56-25.60Q216.96-24.51 215.23-23.74L215.23-23.74L215.23-23.74Q219.39-20.29 220.42-18.82L220.42-18.82L220.42-18.82Q222.14-16.45 222.14-13.57L222.14-13.57L222.14-13.57Q222.14-10.69 220.70-7.87L220.70-7.87L220.70-7.87Q219.26-5.06 216.70-3.07L216.70-3.07L216.70-3.07Q211.33 1.28 203.46 1.28L203.46 1.28L203.46 1.28Q197.18 1.28 193.41-1.54L193.41-1.54L193.41-1.54Q189.70-4.35 189.70-8.90ZM207.62-13.63L203.14-17.41L203.14-17.41Q199.87-14.91 199.87-10.69L199.87-10.69L199.87-10.69Q199.87-8.45 200.93-6.91L200.93-6.91L200.93-6.91Q201.98-5.38 203.97-5.38L203.97-5.38L203.97-5.38Q205.95-5.38 207.46-6.85L207.46-6.85L207.46-6.85Q208.96-8.32 208.96-10.56L208.96-10.56L208.96-10.56Q208.96-12.54 207.62-13.63L207.62-13.63ZM207.49-29.70L211.26-26.88L211.26-26.88Q214.78-28.54 214.78-32.45L214.78-32.45L214.78-32.45Q214.78-34.50 213.70-35.84L213.70-35.84L213.70-35.84Q212.61-37.18 210.62-37.18L210.62-37.18L210.62-37.18Q208.64-37.18 207.33-36.03L207.33-36.03L207.33-36.03Q206.02-34.88 206.02-33.41L206.02-33.41L206.02-33.41Q206.02-30.91 207.49-29.70L207.49-29.70Z" fill="#444"></path></g></g><style>text {
  font-size: 64px;
  font-family: Arial Black;
  dominant-baseline: central;
  text-anchor: middle;
}</style></svg>